<svg xmlns="http://www.w3.org/2000/svg" width="32" height="32" viewBox="0 0 32 32"><defs><style>@font-face{font-family:ifont;src:url(//at.alicdn.com/t/font_1442373896_4754455.eot?#iefix) format(&quot;embedded-opentype&quot;),url(//at.alicdn.com/t/font_1442373896_4754455.woff) format(&quot;woff&quot;),url(//at.alicdn.com/t/font_1442373896_4754455.ttf) format(&quot;truetype&quot;),url(//at.alicdn.com/t/font_1442373896_4754455.svg#ifont) format(&quot;svg&quot;)}</style></defs><g class="transform-group"><path fill="#9EABB3" d="M23.524 2.02h-4.301c-2.622 0-3.574.347-5.377 2.15L3.092 14.926c-1.27 1.268-1.572 3.805 0 5.376l8.603 8.604c.848.848 1.88 1.075 2.79 1.075 1.092 0 2.007-.496 2.587-1.075L27.826 18.15c1.873-1.874 2.15-2.9 2.15-5.377V8.472c0-4.884-1.567-6.452-6.452-6.452zM22.45 12.774c-1.779 0-3.226-1.448-3.226-3.226 0-1.78 1.447-3.227 3.226-3.227 1.778 0 3.226 1.448 3.226 3.227 0 1.778-1.448 3.226-3.226 3.226zm0 0"/></g></svg>